<svg width="80" height="80" viewBox="0 0 80 80" fill="none" xmlns="http://www.w3.org/2000/svg">
<path d="M12.7767 13.3334H27.7433L32.5667 25.3934L24.8167 30.56C24.3603 30.8645 23.9861 31.277 23.7273 31.7607C23.4686 32.2445 23.3333 32.7847 23.3333 33.3334C23.3433 33.6467 23.3333 33.3367 23.3333 33.3367V33.4067C23.335 33.5558 23.3417 33.7047 23.3533 33.8534C23.3711 34.1289 23.41 34.4956 23.47 34.9534C23.6 35.8534 23.85 37.0934 24.3367 38.5534C25.3167 41.4867 27.2367 45.2834 30.9767 49.0234C34.7167 52.7634 38.5133 54.6834 41.4433 55.6634C42.9067 56.15 44.1433 56.3967 45.05 56.53C45.5614 56.6043 46.0767 56.6489 46.5933 56.6634L46.6367 56.6667H46.6633C46.6633 56.6667 47.0367 56.6467 46.6667 56.6667C47.2855 56.6664 47.8921 56.4937 48.4184 56.1682C48.9447 55.8426 49.37 55.377 49.6467 54.8234L51.88 50.3567L66.6667 52.8234V67.2234C59.63 68.24 40.6233 69.2434 25.69 54.31C10.7567 39.3767 11.7567 20.3667 12.7767 13.3334ZM30.2433 34.9534L36.2667 30.94C37.5391 30.0913 38.4811 28.8307 38.9344 27.3699C39.3878 25.9091 39.325 24.3367 38.7567 22.9167L33.9333 10.8567C33.4384 9.6197 32.5841 8.5594 31.4808 7.81256C30.3775 7.06572 29.0757 6.6666 27.7433 6.66669H12.6033C9.57333 6.66669 6.72333 8.77002 6.22667 12.0567C5.09333 19.53 3.55667 41.6034 20.9767 59.0234C38.3967 76.4434 60.47 74.9034 67.9433 73.7734C71.23 73.2734 73.3333 70.4267 73.3333 67.3967V52.8234C73.3335 51.2452 72.7739 49.7182 71.754 48.5139C70.734 47.3097 69.32 46.5063 67.7633 46.2467L52.9767 43.7834C51.5703 43.5486 50.1258 43.7709 48.8551 44.4177C47.5844 45.0644 46.5545 46.1015 45.9167 47.3767L44.7633 49.6867C44.3557 49.5853 43.9521 49.4686 43.5533 49.3367C41.4867 48.65 38.6167 47.2367 35.69 44.31C32.7633 41.3834 31.35 38.5134 30.6633 36.4434C30.5015 35.9534 30.3624 35.4562 30.2467 34.9534H30.2433Z" fill="#00AAFF"/>
</svg>
