<svg width="50" height="50" viewBox="0 0 50 50" fill="none" xmlns="http://www.w3.org/2000/svg">
<path fill-rule="evenodd" clip-rule="evenodd" d="M12.5 6.25C10.8424 6.25 9.25269 6.90848 8.08058 8.08058C6.90848 9.25269 6.25 10.8424 6.25 12.5V37.5C6.25 39.1576 6.90848 40.7473 8.08058 41.9194C9.25269 43.0915 10.8424 43.75 12.5 43.75H37.5C39.1576 43.75 40.7473 43.0915 41.9194 41.9194C43.0915 40.7473 43.75 39.1576 43.75 37.5V27.0833C43.75 26.5308 43.5305 26.0009 43.1398 25.6102C42.7491 25.2195 42.2192 25 41.6667 25C41.1141 25 40.5842 25.2195 40.1935 25.6102C39.8028 26.0009 39.5833 26.5308 39.5833 27.0833V37.5C39.5833 38.0525 39.3638 38.5824 38.9731 38.9731C38.5824 39.3638 38.0525 39.5833 37.5 39.5833H12.5C11.9475 39.5833 11.4176 39.3638 11.0269 38.9731C10.6362 38.5824 10.4167 38.0525 10.4167 37.5V12.5C10.4167 11.9475 10.6362 11.4176 11.0269 11.0269C11.4176 10.6362 11.9475 10.4167 12.5 10.4167H29.1667C29.7192 10.4167 30.2491 10.1972 30.6398 9.80647C31.0305 9.41577 31.25 8.88587 31.25 8.33333C31.25 7.7808 31.0305 7.25089 30.6398 6.86019C30.2491 6.46949 29.7192 6.25 29.1667 6.25H12.5ZM44.4958 12.5938C44.9758 12.3206 45.3277 11.8681 45.4742 11.3357C45.6207 10.8032 45.5498 10.2344 45.2771 9.75417C45.0001 9.27777 44.5472 8.92905 44.0159 8.78297C43.4845 8.63688 42.917 8.70509 42.4354 8.97292C41.7 9.38958 40.9896 9.85625 40.2896 10.3271C38.5144 11.5211 36.8018 12.8054 35.1583 14.175C31.7375 17.0208 27.6292 21.0292 24.2437 26.0875C23.1912 24.7015 21.9692 23.4529 20.6062 22.3708C19.7167 21.6771 18.7271 20.9958 17.6583 20.6083C17.1395 20.418 16.5642 20.4415 16.0628 20.6738C15.5613 20.9061 15.1726 21.328 14.9823 21.8469C14.7919 22.3657 14.8155 22.9389 15.0478 23.4404C15.28 23.9418 15.702 24.3305 16.2208 24.5208C16.2729 24.5417 16.9917 24.8333 18.0458 25.6562C19.25 26.5937 20.9125 28.2375 22.5167 30.9833C22.7012 31.2995 22.9658 31.5614 23.2837 31.7427C23.6017 31.9241 23.9619 32.0184 24.3279 32.0163C24.6939 32.0142 25.053 31.9157 25.3688 31.7307C25.6847 31.5457 25.9462 31.2807 26.1271 30.9625C29.4271 25.1479 34.0167 20.5458 37.8229 17.3792C39.7188 15.8021 41.4062 14.5958 42.6104 13.7875C43.225 13.3729 43.85 12.9667 44.4937 12.5958L44.4958 12.5938Z" fill="#00157D"/>
</svg>
