<svg width="50" height="53" viewBox="0 0 50 53" fill="none" xmlns="http://www.w3.org/2000/svg">
<path d="M43.75 35.5001H10.1875C9.17292 35.5001 8.41875 35.8584 7.82708 36.4397C6.85 37.398 6.5 38.8147 6.34583 40.173C6.16667 41.7459 6.23125 43.1855 6.66875 44.7459C7.16042 46.4855 8.37708 48.0001 10.1792 48.0001H43.75M40.4292 48.0001C37.2229 45.0584 35.9083 39.9626 40.4292 35.5001M24.6646 10.8751C24.6646 5.66675 19.0208 3.58342 19.0208 3.58342M24.6646 11.7522C24.6646 11.7522 12.25 5.36675 12.25 15.8917C12.2521 26.4188 17.8979 30.6667 20.15 30.6667C21.9458 30.6667 23.0042 28.5647 24.6646 28.5647C26.325 28.5647 26.9188 30.6667 29.1771 30.6667C31.4271 30.6667 37.0771 26.4167 37.0771 15.8917C37.0771 5.36675 24.6646 11.7522 24.6646 11.7522ZM25.7917 9.83342C25.7917 1.52092 29.8563 3.58342 31.8896 1.50008C33.9208 6.70842 31.2021 7.75633 25.7917 9.83342Z" stroke="#00157D" stroke-width="3" stroke-linecap="round" stroke-linejoin="round"/>
</svg>
