<svg width="50" height="53" viewBox="0 0 50 53" fill="none" xmlns="http://www.w3.org/2000/svg">
<path d="M25 23.1875C22.7898 23.1875 20.6702 22.315 19.1074 20.762C17.5446 19.2089 16.6666 17.1026 16.6666 14.9062C16.6666 12.7099 17.5446 10.6036 19.1074 9.05052C20.6702 7.49749 22.7898 6.625 25 6.625C27.2101 6.625 29.3297 7.49749 30.8925 9.05052C32.4553 10.6036 33.3333 12.7099 33.3333 14.9062C33.3333 17.1026 32.4553 19.2089 30.8925 20.762C29.3297 22.315 27.2101 23.1875 25 23.1875ZM25 9.9375C22.2333 9.9375 20 12.1569 20 14.9062C20 17.6556 22.2333 19.875 25 19.875C27.7666 19.875 30 17.6556 30 14.9062C30 12.1569 27.7666 9.9375 25 9.9375Z" fill="#00157D"/>
<path d="M45 36.4375C44.0667 36.4375 43.3333 35.7087 43.3333 34.7812C43.3333 33.8538 44.0667 33.125 45 33.125C45.9333 33.125 46.6667 32.3962 46.6667 31.4688C46.6667 29.2724 45.7887 27.1661 44.2259 25.613C42.6631 24.06 40.5435 23.1875 38.3333 23.1875H35C34.0667 23.1875 33.3333 22.4587 33.3333 21.5312C33.3333 20.6038 34.0667 19.875 35 19.875C37.7667 19.875 40 17.6556 40 14.9062C40 12.1569 37.7667 9.9375 35 9.9375C34.0667 9.9375 33.3333 9.20875 33.3333 8.28125C33.3333 7.35375 34.0667 6.625 35 6.625C37.2101 6.625 39.3298 7.49749 40.8926 9.05052C42.4554 10.6036 43.3333 12.7099 43.3333 14.9062C43.3333 16.96 42.6 18.815 41.3333 20.2725C46.3 21.5975 50 26.1025 50 31.4688C50 34.2181 47.7667 36.4375 45 36.4375ZM5 36.4375C2.23333 36.4375 0 34.2181 0 31.4688C0 26.1025 3.66667 21.5975 8.66667 20.2725C7.43333 18.815 6.66667 16.96 6.66667 14.9062C6.66667 12.7099 7.54464 10.6036 9.10744 9.05052C10.6702 7.49749 12.7899 6.625 15 6.625C15.9333 6.625 16.6667 7.35375 16.6667 8.28125C16.6667 9.20875 15.9333 9.9375 15 9.9375C12.2333 9.9375 10 12.1569 10 14.9062C10 17.6556 12.2333 19.875 15 19.875C15.9333 19.875 16.6667 20.6038 16.6667 21.5312C16.6667 22.4587 15.9333 23.1875 15 23.1875H11.6667C9.45653 23.1875 7.33691 24.06 5.77411 25.613C4.21131 27.1661 3.33333 29.2724 3.33333 31.4688C3.33333 32.3962 4.06667 33.125 5 33.125C5.93333 33.125 6.66667 33.8538 6.66667 34.7812C6.66667 35.7087 5.93333 36.4375 5 36.4375ZM35 46.375H15C12.2333 46.375 10 44.1556 10 41.4062V38.0938C10 31.7006 15.2333 26.5 21.6667 26.5H28.3333C34.7667 26.5 40 31.7006 40 38.0938V41.4062C40 44.1556 37.7667 46.375 35 46.375ZM21.6667 29.8125C19.4565 29.8125 17.3369 30.685 15.7741 32.238C14.2113 33.7911 13.3333 35.8974 13.3333 38.0938V41.4062C13.3333 42.3338 14.0667 43.0625 15 43.0625H35C35.9333 43.0625 36.6667 42.3338 36.6667 41.4062V38.0938C36.6667 35.8974 35.7887 33.7911 34.2259 32.238C32.6631 30.685 30.5435 29.8125 28.3333 29.8125H21.6667Z" fill="#00157D"/>
</svg>
