<svg width="80" height="80" viewBox="0 0 80 80" fill="none" xmlns="http://www.w3.org/2000/svg">
<path d="M33.3333 33.3333H46.6666M33.3333 33.3333V46.6666M33.3333 33.3333L21.6666 21.6666M46.6666 33.3333V46.6666M46.6666 33.3333L58.3333 21.6666M46.6666 46.6666H33.3333M46.6666 46.6666L58.3333 58.3333M33.3333 46.6666L21.6666 58.3333M33.2 20C32.8934 17.8552 31.9957 15.8382 30.6074 14.1748C29.2191 12.5115 27.395 11.2676 25.3396 10.5826C23.2842 9.89752 21.0786 9.79834 18.97 10.2962C16.8614 10.794 14.9331 11.8691 13.4011 13.4011C11.8691 14.9331 10.794 16.8614 10.2962 18.97C9.79834 21.0786 9.89752 23.2842 10.5826 25.3396C11.2676 27.395 12.5115 29.2191 14.1748 30.6074C15.8382 31.9957 17.8552 32.8934 20 33.2M60 33.2C62.1448 32.8934 64.1618 31.9957 65.8251 30.6074C67.4884 29.2191 68.7323 27.395 69.4174 25.3396C70.1024 23.2842 70.2016 21.0786 69.7038 18.97C69.206 16.8614 68.1309 14.9331 66.5989 13.4011C65.0669 11.8691 63.1385 10.794 61.0299 10.2962C58.9213 9.79834 56.7157 9.89752 54.6603 10.5826C52.6049 11.2676 50.7809 12.5115 49.3926 14.1748C48.0042 15.8382 47.1065 17.8552 46.8 20M46.8 60C47.1065 62.1448 48.0042 64.1618 49.3926 65.8251C50.7809 67.4884 52.6049 68.7323 54.6603 69.4174C56.7157 70.1024 58.9213 70.2016 61.0299 69.7038C63.1385 69.206 65.0669 68.1309 66.5989 66.5989C68.1309 65.0669 69.206 63.1385 69.7038 61.0299C70.2016 58.9213 70.1024 56.7157 69.4174 54.6603C68.7323 52.6049 67.4884 50.7809 65.8251 49.3926C64.1618 48.0042 62.1448 47.1065 60 46.8M20 46.8C17.8552 47.1065 15.8382 48.0042 14.1748 49.3926C12.5115 50.7809 11.2676 52.6049 10.5826 54.6603C9.89752 56.7157 9.79834 58.9213 10.2962 61.0299C10.794 63.1385 11.8691 65.0669 13.4011 66.5989C14.9331 68.1309 16.8614 69.206 18.97 69.7038C21.0786 70.2016 23.2842 70.1024 25.3396 69.4174C27.395 68.7323 29.2191 67.4884 30.6074 65.8251C31.9957 64.1618 32.8934 62.1448 33.2 60" stroke="#00AAFF" stroke-width="7" stroke-linecap="round" stroke-linejoin="round"/>
</svg>
