<svg width="80" height="80" viewBox="0 0 80 80" fill="none" xmlns="http://www.w3.org/2000/svg">
<path d="M64.1866 15.8933C57.8619 9.95497 49.5089 6.6548 40.8333 6.66666C21.9633 6.66666 6.66663 21.9633 6.66663 40.8333C6.66663 59.7033 21.9633 75 40.8333 75C49.8235 75.0127 58.4539 71.4695 64.8416 65.1433L40 40L64.1866 15.8933Z" stroke="#00AAFF" stroke-width="7" stroke-linejoin="round"/>
<path d="M66.6667 46.6666C68.4348 46.6666 70.1305 45.9643 71.3807 44.714C72.631 43.4638 73.3333 41.7681 73.3333 40C73.3333 38.2319 72.631 36.5362 71.3807 35.2859C70.1305 34.0357 68.4348 33.3333 66.6667 33.3333C64.8986 33.3333 63.2029 34.0357 61.9526 35.2859C60.7024 36.5362 60 38.2319 60 40C60 41.7681 60.7024 43.4638 61.9526 44.714C63.2029 45.9643 64.8986 46.6666 66.6667 46.6666Z" stroke="#00AAFF" stroke-width="7" stroke-linejoin="round"/>
<path d="M28.3333 21.6667V35M21.6666 28.3334H35" stroke="#00AAFF" stroke-width="7" stroke-linecap="round" stroke-linejoin="round"/>
</svg>
