<svg width="80" height="80" viewBox="0 0 80 80" fill="none" xmlns="http://www.w3.org/2000/svg">
<path d="M48.7333 8.87331C49.366 9.05033 49.9576 9.35031 50.4743 9.75609C50.991 10.1619 51.4227 10.6655 51.7446 11.2382C52.0666 11.8109 52.2725 12.4415 52.3506 13.0938C52.4288 13.7461 52.3776 14.4074 52.2 15.04L37.43 67.6633C37.0719 68.9403 36.2213 70.0228 35.0651 70.6726C33.9089 71.3224 32.542 71.4863 31.265 71.1283C29.988 70.7703 28.9055 69.9196 28.2557 68.7634C27.6058 67.6073 27.4419 66.2403 27.8 64.9633L42.57 12.3333C42.7473 11.7009 43.0476 11.1097 43.4535 10.5933C43.8595 10.077 44.3631 9.6457 44.9358 9.32408C45.5085 9.00246 46.1389 8.79682 46.791 8.7189C47.4432 8.64099 48.1043 8.69232 48.7366 8.86998L48.7333 8.87331ZM25.2 22.3233C26.1363 23.2608 26.6622 24.5316 26.6622 25.8566C26.6622 27.1817 26.1363 28.4525 25.2 29.39L14.6 40L25.2066 50.6066C26.1442 51.5446 26.6707 52.8166 26.6704 54.1428C26.6701 55.469 26.143 56.7408 25.205 57.6783C24.267 58.6158 22.995 59.1424 21.6688 59.1421C20.3426 59.1418 19.0709 58.6146 18.1333 57.6766L3.98998 43.5333C3.05364 42.5958 2.52771 41.325 2.52771 40C2.52771 38.675 3.05364 37.4041 3.98998 36.4666L18.13 22.3233C18.5943 21.8587 19.1456 21.4901 19.7525 21.2386C20.3593 20.9871 21.0098 20.8577 21.6666 20.8577C22.3235 20.8577 22.974 20.9871 23.5808 21.2386C24.1876 21.4901 24.7356 21.8587 25.2 22.3233ZM54.8 29.39C54.3087 28.9322 53.9147 28.3802 53.6414 27.7669C53.3682 27.1536 53.2212 26.4915 53.2094 25.8201C53.1975 25.1488 53.321 24.4819 53.5725 23.8593C53.824 23.2367 54.1983 22.6712 54.6731 22.1964C55.1478 21.7216 55.7134 21.3473 56.336 21.0958C56.9586 20.8444 57.6254 20.7209 58.2968 20.7327C58.9681 20.7445 59.6302 20.8915 60.2436 21.1648C60.8569 21.4381 61.4089 21.8321 61.8666 22.3233L76.01 36.4633C76.9473 37.401 77.4739 38.6725 77.4739 39.9983C77.4739 41.3241 76.9473 42.5957 76.01 43.5333L61.87 57.6766C61.4058 58.1411 60.8546 58.5095 60.248 58.761C59.6414 59.0124 58.9911 59.1419 58.3345 59.1421C57.6778 59.1422 57.0276 59.013 56.4208 58.7619C55.8141 58.5107 55.2628 58.1425 54.7983 57.6783C54.3339 57.2141 53.9654 56.6629 53.714 56.0563C53.4625 55.4497 53.333 54.7995 53.3329 54.1428C53.3327 53.4862 53.4619 52.8359 53.7131 52.2292C53.9642 51.6224 54.3324 51.0711 54.7966 50.6066L65.4033 40L54.8 29.39Z" fill="#00AAFF"/>
</svg>
