<svg width="80" height="80" viewBox="0 0 80 80" fill="none" xmlns="http://www.w3.org/2000/svg">
<path d="M58.3334 51.6667C58.3334 55.3667 55.3667 58.3334 51.6667 58.3334C47.9667 58.3334 45 55.3667 45 51.6667C45 47.9667 48 45 51.6667 45C55.3334 45 58.3334 48 58.3334 51.6667ZM28.3334 45C24.6667 45 21.6667 48 21.6667 51.6667C21.6667 55.3334 24.6667 58.3334 28.3334 58.3334C32 58.3334 35 55.3667 35 51.6667C35 47.9667 32.0334 45 28.3334 45ZM76.6667 50V60C76.6667 61.8334 75.1667 63.3334 73.3334 63.3334H70V66.6667C70 70.3667 67.0334 73.3334 63.3334 73.3334H16.6667C14.8986 73.3334 13.2029 72.631 11.9527 71.3807C10.7024 70.1305 10 68.4348 10 66.6667V63.3334H6.66671C4.83337 63.3334 3.33337 61.8334 3.33337 60V50C3.33337 48.1667 4.83337 46.6667 6.66671 46.6667H10C10 33.7667 20.4334 23.3334 33.3334 23.3334H36.6667V19.1C34.6667 17.9667 33.3334 15.8 33.3334 13.3334C33.3334 9.66669 36.3334 6.66669 40 6.66669C43.6667 6.66669 46.6667 9.66669 46.6667 13.3334C46.6667 15.8 45.3334 17.9667 43.3334 19.1V23.3334H46.6667C59.5667 23.3334 70 33.7667 70 46.6667H73.3334C75.1667 46.6667 76.6667 48.1667 76.6667 50ZM70 53.3334H63.3334V46.6667C63.3334 37.4667 55.8667 30 46.6667 30H33.3334C24.1334 30 16.6667 37.4667 16.6667 46.6667V53.3334H10V56.6667H16.6667V66.6667H63.3334V56.6667H70V53.3334Z" fill="#00AAFF"/>
</svg>
