<svg width="40" height="40" viewBox="0 0 40 40" fill="none" xmlns="http://www.w3.org/2000/svg">
<path d="M6.38833 6.66659H13.8717L16.2833 12.6966L12.4083 15.2799C12.1801 15.4322 11.9931 15.6384 11.8637 15.8803C11.7343 16.1222 11.6666 16.3923 11.6667 16.6666C11.6717 16.8233 11.6667 16.6683 11.6667 16.6683V16.7033C11.6675 16.7778 11.6708 16.8523 11.6767 16.9266C11.6856 17.0644 11.705 17.2477 11.735 17.4766C11.8 17.9266 11.925 18.5466 12.1683 19.2766C12.6583 20.7433 13.6183 22.6416 15.4883 24.5116C17.3583 26.3816 19.2567 27.3416 20.7217 27.8316C21.4533 28.0749 22.0717 28.1983 22.525 28.2649C22.7807 28.3021 23.0384 28.3243 23.2967 28.3316L23.3183 28.3333H23.3317C23.3317 28.3333 23.5183 28.3233 23.3333 28.3333C23.6428 28.3331 23.9461 28.2468 24.2092 28.084C24.4724 27.9212 24.685 27.6884 24.8233 27.4116L25.94 25.1783L33.3333 26.4116V33.6116C29.815 34.1199 20.3117 34.6216 12.845 27.1549C5.37833 19.6883 5.87833 10.1833 6.38833 6.66659ZM15.1217 17.4766L18.1333 15.4699C18.7696 15.0455 19.2405 14.4153 19.4672 13.6849C19.6939 12.9544 19.6625 12.1683 19.3783 11.4583L16.9667 5.42825C16.7192 4.80976 16.2921 4.27961 15.7404 3.90619C15.1887 3.53277 14.5378 3.33321 13.8717 3.33325H6.30167C4.78667 3.33325 3.36167 4.38492 3.11333 6.02825C2.54667 9.76492 1.77833 20.8016 10.4883 29.5116C19.1983 38.2216 30.235 37.4516 33.9717 36.8866C35.615 36.6366 36.6667 35.2133 36.6667 33.6983V26.4116C36.6668 25.6225 36.3869 24.859 35.877 24.2569C35.367 23.6548 34.66 23.2531 33.8817 23.1233L26.4883 21.8916C25.7852 21.7742 25.0629 21.8854 24.4275 22.2087C23.7922 22.5321 23.2773 23.0507 22.9583 23.6883L22.3817 24.8433C22.1779 24.7926 21.9761 24.7342 21.7767 24.6683C20.7433 24.3249 19.3083 23.6183 17.845 22.1549C16.3817 20.6916 15.675 19.2566 15.3317 18.2216C15.2507 17.9766 15.1812 17.728 15.1233 17.4766H15.1217Z" fill="white"/>
</svg>
