<svg width="48" height="48" viewBox="0 0 48 48" fill="none" xmlns="http://www.w3.org/2000/svg">
<rect width="48" height="48" rx="12" fill="#00AAFF" fill-opacity="0.1"/>
<path d="M27.4768 24.89L28.9918 33.416C29.0265 33.6216 28.93 33.8272 28.7497 33.9318C28.5694 34.0365 28.343 34.0182 28.1818 33.886L24.6018 31.199C24.2468 30.9338 23.7597 30.9338 23.4048 31.199L19.8188 33.885C19.6577 34.017 19.4316 34.0352 19.2514 33.9309C19.0712 33.8265 18.9746 33.6214 19.0088 33.416L20.5228 24.89" stroke="#00AAFF" stroke-width="2" stroke-linecap="round" stroke-linejoin="round"/>
<path d="M18 20C18 23.3115 20.6885 26 24 26C27.3115 26 30 23.3115 30 20C30 16.6885 27.3115 14 24 14C20.6885 14 18 16.6885 18 20V20" stroke="#00AAFF" stroke-width="2" stroke-linecap="round" stroke-linejoin="round"/>
</svg>
