<svg width="56" height="56" viewBox="0 0 56 56" fill="none" xmlns="http://www.w3.org/2000/svg">
<rect width="56" height="56" rx="15" fill="#00AAFF" fill-opacity="0.1"/>
<path d="M32 37V35C32 32.7923 30.2077 31 28 31H22C19.7923 31 18 32.7923 18 35V37" stroke="#00AAFF" stroke-width="2" stroke-linecap="round" stroke-linejoin="round"/>
<path d="M21 23C21 24.4291 21.7624 25.7496 23 26.4641C24.2376 27.1786 25.7624 27.1786 27 26.4641C28.2376 25.7496 29 24.4291 29 23C29 20.7923 27.2077 19 25 19C22.7923 19 21 20.7923 21 23V23" stroke="#00AAFF" stroke-width="2" stroke-linecap="round" stroke-linejoin="round"/>
<path d="M38 37V35C37.9986 33.1771 36.765 31.5857 35 31.13" stroke="#00AAFF" stroke-width="2" stroke-linecap="round" stroke-linejoin="round"/>
<path d="M32 19.13C33.7699 19.5832 35.0078 21.178 35.0078 23.005C35.0078 24.832 33.7699 26.4268 32 26.88" stroke="#00AAFF" stroke-width="2" stroke-linecap="round" stroke-linejoin="round"/>
</svg>
